<svg xmlns="http://www.w3.org/2000/svg" width="52" height="52" viewBox="0 0 52 52" fill="none">
<path d="M3.80107 1H48.6184C50.1654 1 51.4194 2.25387 51.4194 3.8007L51.42 8.24269C51.4203 8.98575 51.125 9.69837 50.5996 10.2238L32.6321 28.1902C32.1069 28.7154 31.8117 29.428 31.8117 30.1709V47.8316C31.8117 49.6539 30.0991 50.9912 28.3314 50.5492L22.7292 49.1486C21.4822 48.8369 20.6075 47.7165 20.6075 46.431V30.1709C20.6075 29.428 20.3123 28.7154 19.7871 28.1902L1.8204 10.2236C1.29509 9.69832 1 8.98584 1 8.24297V3.80107C1 2.25409 2.25407 1 3.80107 1Z" fill="white" fill-opacity="0.2" stroke="white" stroke-opacity="0.5" stroke-linecap="round" stroke-linejoin="round"/>
</svg>